<svg width="105" height="26" viewBox="0 0 105 26" fill="none" xmlns="http://www.w3.org/2000/svg">
<path d="M39.483 16.892H35.029L34.315 19H31.272L35.59 7.066H38.956L43.274 19H40.197L39.483 16.892ZM38.735 14.648L37.256 10.279L35.794 14.648H38.735ZM44.0102 14.257C44.0102 13.271 44.2085 12.4097 44.6052 11.673C45.0132 10.9363 45.5742 10.3697 46.2882 9.973C47.0135 9.57633 47.8408 9.378 48.7702 9.378C49.9602 9.378 50.9518 9.68967 51.7452 10.313C52.5498 10.9363 53.0768 11.8147 53.3262 12.948H50.2322C49.9715 12.2227 49.4672 11.86 48.7192 11.86C48.1865 11.86 47.7615 12.0697 47.4442 12.489C47.1268 12.897 46.9682 13.4863 46.9682 14.257C46.9682 15.0277 47.1268 15.6227 47.4442 16.042C47.7615 16.45 48.1865 16.654 48.7192 16.654C49.4672 16.654 49.9715 16.2913 50.2322 15.566H53.3262C53.0768 16.6767 52.5498 17.5493 51.7452 18.184C50.9405 18.8187 49.9488 19.136 48.7702 19.136C47.8408 19.136 47.0135 18.9377 46.2882 18.541C45.5742 18.1443 45.0132 17.5777 44.6052 16.841C44.2085 16.1043 44.0102 15.243 44.0102 14.257ZM54.3031 14.257C54.3031 13.271 54.5015 12.4097 54.8981 11.673C55.3061 10.9363 55.8671 10.3697 56.5811 9.973C57.3065 9.57633 58.1338 9.378 59.0631 9.378C60.2531 9.378 61.2448 9.68967 62.0381 10.313C62.8428 10.9363 63.3698 11.8147 63.6191 12.948H60.5251C60.2645 12.2227 59.7601 11.86 59.0121 11.86C58.4795 11.86 58.0545 12.0697 57.7371 12.489C57.4198 12.897 57.2611 13.4863 57.2611 14.257C57.2611 15.0277 57.4198 15.6227 57.7371 16.042C58.0545 16.45 58.4795 16.654 59.0121 16.654C59.7601 16.654 60.2645 16.2913 60.5251 15.566H63.6191C63.3698 16.6767 62.8428 17.5493 62.0381 18.184C61.2335 18.8187 60.2418 19.136 59.0631 19.136C58.1338 19.136 57.3065 18.9377 56.5811 18.541C55.8671 18.1443 55.3061 17.5777 54.8981 16.841C54.5015 16.1043 54.3031 15.243 54.3031 14.257ZM69.4921 19.136C68.5628 19.136 67.7241 18.9377 66.9761 18.541C66.2395 18.1443 65.6558 17.5777 65.2251 16.841C64.8058 16.1043 64.5961 15.243 64.5961 14.257C64.5961 13.2823 64.8115 12.4267 65.2421 11.69C65.6728 10.942 66.2621 10.3697 67.0101 9.973C67.7581 9.57633 68.5968 9.378 69.5261 9.378C70.4555 9.378 71.2941 9.57633 72.0421 9.973C72.7901 10.3697 73.3795 10.942 73.8101 11.69C74.2408 12.4267 74.4561 13.2823 74.4561 14.257C74.4561 15.2317 74.2351 16.093 73.7931 16.841C73.3625 17.5777 72.7675 18.1443 72.0081 18.541C71.2601 18.9377 70.4215 19.136 69.4921 19.136ZM69.4921 16.62C70.0475 16.62 70.5178 16.416 70.9031 16.008C71.2998 15.6 71.4981 15.0163 71.4981 14.257C71.4981 13.4977 71.3055 12.914 70.9201 12.506C70.5461 12.098 70.0815 11.894 69.5261 11.894C68.9595 11.894 68.4891 12.098 68.1151 12.506C67.7411 12.9027 67.5541 13.4863 67.5541 14.257C67.5541 15.0163 67.7355 15.6 68.0981 16.008C68.4721 16.416 68.9368 16.62 69.4921 16.62ZM85.3653 9.514V19H82.4583V17.708C82.1637 18.1273 81.7613 18.4673 81.2513 18.728C80.7527 18.9773 80.1973 19.102 79.5853 19.102C78.86 19.102 78.2197 18.9433 77.6643 18.626C77.109 18.2973 76.6783 17.827 76.3723 17.215C76.0663 16.603 75.9133 15.8833 75.9133 15.056V9.514H78.8033V14.665C78.8033 15.2997 78.9677 15.7927 79.2963 16.144C79.625 16.4953 80.067 16.671 80.6223 16.671C81.189 16.671 81.6367 16.4953 81.9653 16.144C82.294 15.7927 82.4583 15.2997 82.4583 14.665V9.514H85.3653ZM93.2334 9.412C94.3441 9.412 95.2281 9.77467 95.8854 10.5C96.5541 11.214 96.8884 12.2 96.8884 13.458V19H93.9984V13.849C93.9984 13.2143 93.8341 12.7213 93.5054 12.37C93.1767 12.0187 92.7347 11.843 92.1794 11.843C91.6241 11.843 91.1821 12.0187 90.8534 12.37C90.5247 12.7213 90.3604 13.2143 90.3604 13.849V19H87.4534V9.514H90.3604V10.772C90.6551 10.3527 91.0517 10.024 91.5504 9.786C92.0491 9.53667 92.6101 9.412 93.2334 9.412ZM104.195 16.535V19H102.716C101.662 19 100.841 18.745 100.251 18.235C99.6622 17.7137 99.3675 16.8693 99.3675 15.702V11.928H98.2115V9.514H99.3675V7.202H102.274V9.514H104.178V11.928H102.274V15.736C102.274 16.0193 102.342 16.2233 102.478 16.348C102.614 16.4727 102.841 16.535 103.158 16.535H104.195Z" fill="white"/>
<path fill-rule="evenodd" clip-rule="evenodd" d="M12 2C6.48 2 2 6.48 2 12C2 17.52 6.48 22 12 22C17.52 22 22 17.52 22 12C22 6.48 17.52 2 12 2ZM7.07 18.28C7.5 17.38 10.12 16.5 12 16.5C13.88 16.5 16.51 17.38 16.93 18.28C15.57 19.36 13.86 20 12 20C10.14 20 8.43 19.36 7.07 18.28ZM18.36 16.83C16.93 15.09 13.46 14.5 12 14.5C10.54 14.5 7.07 15.09 5.64 16.83C4.62 15.49 4 13.82 4 12C4 7.59 7.59 4 12 4C16.41 4 20 7.59 20 12C20 13.82 19.38 15.49 18.36 16.83ZM12 6C10.06 6 8.5 7.56 8.5 9.5C8.5 11.44 10.06 13 12 13C13.94 13 15.5 11.44 15.5 9.5C15.5 7.56 13.94 6 12 6ZM12 11C11.17 11 10.5 10.33 10.5 9.5C10.5 8.67 11.17 8 12 8C12.83 8 13.5 8.67 13.5 9.5C13.5 10.33 12.83 11 12 11Z" fill="white"/>
<mask id="mask0_1_65" style="mask-type:luminance" maskUnits="userSpaceOnUse" x="2" y="2" width="20" height="20">
<path fill-rule="evenodd" clip-rule="evenodd" d="M12 2C6.48 2 2 6.48 2 12C2 17.52 6.48 22 12 22C17.52 22 22 17.52 22 12C22 6.48 17.52 2 12 2ZM7.07 18.28C7.5 17.38 10.12 16.5 12 16.5C13.88 16.5 16.51 17.38 16.93 18.28C15.57 19.36 13.86 20 12 20C10.14 20 8.43 19.36 7.07 18.28ZM18.36 16.83C16.93 15.09 13.46 14.5 12 14.5C10.54 14.5 7.07 15.09 5.64 16.83C4.62 15.49 4 13.82 4 12C4 7.59 7.59 4 12 4C16.41 4 20 7.59 20 12C20 13.82 19.38 15.49 18.36 16.83ZM12 6C10.06 6 8.5 7.56 8.5 9.5C8.5 11.44 10.06 13 12 13C13.94 13 15.5 11.44 15.5 9.5C15.5 7.56 13.94 6 12 6ZM12 11C11.17 11 10.5 10.33 10.5 9.5C10.5 8.67 11.17 8 12 8C12.83 8 13.5 8.67 13.5 9.5C13.5 10.33 12.83 11 12 11Z" fill="white"/>
</mask>
<g mask="url(#mask0_1_65)">
</g>
</svg>
