<svg width="114" height="32" viewBox="0 0 114 32" fill="none" xmlns="http://www.w3.org/2000/svg">
<path d="M43.1529 19.6953H38.6989L37.9849 21.8033H34.9419L39.2599 9.86928H42.6259L46.9439 21.8033H43.8669L43.1529 19.6953ZM42.4049 17.4513L40.9259 13.0823L39.4639 17.4513H42.4049ZM47.6801 17.0603C47.6801 16.0743 47.8784 15.2129 48.2751 14.4763C48.6831 13.7396 49.2441 13.173 49.9581 12.7763C50.6834 12.3796 51.5108 12.1813 52.4401 12.1813C53.6301 12.1813 54.6218 12.4929 55.4151 13.1163C56.2198 13.7396 56.7468 14.6179 56.9961 15.7513H53.9021C53.6414 15.026 53.1371 14.6633 52.3891 14.6633C51.8564 14.6633 51.4314 14.873 51.1141 15.2923C50.7968 15.7003 50.6381 16.2896 50.6381 17.0603C50.6381 17.831 50.7968 18.426 51.1141 18.8453C51.4314 19.2533 51.8564 19.4573 52.3891 19.4573C53.1371 19.4573 53.6414 19.0946 53.9021 18.3693H56.9961C56.7468 19.48 56.2198 20.3526 55.4151 20.9873C54.6104 21.622 53.6188 21.9393 52.4401 21.9393C51.5108 21.9393 50.6834 21.741 49.9581 21.3443C49.2441 20.9476 48.6831 20.381 48.2751 19.6443C47.8784 18.9076 47.6801 18.0463 47.6801 17.0603ZM57.9731 17.0603C57.9731 16.0743 58.1714 15.2129 58.5681 14.4763C58.9761 13.7396 59.5371 13.173 60.2511 12.7763C60.9764 12.3796 61.8037 12.1813 62.7331 12.1813C63.9231 12.1813 64.9147 12.4929 65.7081 13.1163C66.5127 13.7396 67.0397 14.6179 67.2891 15.7513H64.1951C63.9344 15.026 63.4301 14.6633 62.6821 14.6633C62.1494 14.6633 61.7244 14.873 61.4071 15.2923C61.0897 15.7003 60.9311 16.2896 60.9311 17.0603C60.9311 17.831 61.0897 18.426 61.4071 18.8453C61.7244 19.2533 62.1494 19.4573 62.6821 19.4573C63.4301 19.4573 63.9344 19.0946 64.1951 18.3693H67.2891C67.0397 19.48 66.5127 20.3526 65.7081 20.9873C64.9034 21.622 63.9117 21.9393 62.7331 21.9393C61.8037 21.9393 60.9764 21.741 60.2511 21.3443C59.5371 20.9476 58.9761 20.381 58.5681 19.6443C58.1714 18.9076 57.9731 18.0463 57.9731 17.0603ZM73.162 21.9393C72.2327 21.9393 71.394 21.741 70.646 21.3443C69.9094 20.9476 69.3257 20.381 68.895 19.6443C68.4757 18.9076 68.266 18.0463 68.266 17.0603C68.266 16.0856 68.4814 15.23 68.912 14.4933C69.3427 13.7453 69.932 13.173 70.68 12.7763C71.428 12.3796 72.2667 12.1813 73.196 12.1813C74.1254 12.1813 74.964 12.3796 75.712 12.7763C76.46 13.173 77.0494 13.7453 77.48 14.4933C77.9107 15.23 78.126 16.0856 78.126 17.0603C78.126 18.035 77.905 18.8963 77.463 19.6443C77.0324 20.381 76.4374 20.9476 75.678 21.3443C74.93 21.741 74.0914 21.9393 73.162 21.9393ZM73.162 19.4233C73.7174 19.4233 74.1877 19.2193 74.573 18.8113C74.9697 18.4033 75.168 17.8196 75.168 17.0603C75.168 16.301 74.9754 15.7173 74.59 15.3093C74.216 14.9013 73.7514 14.6973 73.196 14.6973C72.6294 14.6973 72.159 14.9013 71.785 15.3093C71.411 15.706 71.224 16.2896 71.224 17.0603C71.224 17.8196 71.4054 18.4033 71.768 18.8113C72.142 19.2193 72.6067 19.4233 73.162 19.4233ZM89.0353 12.3173V21.8033H86.1283V20.5113C85.8336 20.9306 85.4313 21.2706 84.9213 21.5313C84.4226 21.7806 83.8673 21.9053 83.2553 21.9053C82.5299 21.9053 81.8896 21.7466 81.3343 21.4293C80.7789 21.1006 80.3483 20.6303 80.0423 20.0183C79.7363 19.4063 79.5833 18.6866 79.5833 17.8593V12.3173H82.4733V17.4683C82.4733 18.103 82.6376 18.596 82.9663 18.9473C83.2949 19.2986 83.7369 19.4743 84.2923 19.4743C84.8589 19.4743 85.3066 19.2986 85.6353 18.9473C85.9639 18.596 86.1283 18.103 86.1283 17.4683V12.3173H89.0353ZM96.9033 12.2153C98.014 12.2153 98.898 12.578 99.5553 13.3033C100.224 14.0173 100.558 15.0033 100.558 16.2613V21.8033H97.6683V16.6523C97.6683 16.0176 97.504 15.5246 97.1753 15.1733C96.8467 14.8219 96.4047 14.6463 95.8493 14.6463C95.294 14.6463 94.852 14.8219 94.5233 15.1733C94.1947 15.5246 94.0303 16.0176 94.0303 16.6523V21.8033H91.1233V12.3173H94.0303V13.5753C94.325 13.1559 94.7217 12.8273 95.2203 12.5893C95.719 12.3399 96.28 12.2153 96.9033 12.2153ZM107.865 19.3383V21.8033H106.386C105.332 21.8033 104.511 21.5483 103.921 21.0383C103.332 20.517 103.037 19.6726 103.037 18.5053V14.7313H101.881V12.3173H103.037V10.0053H105.944V12.3173H107.848V14.7313H105.944V18.5393C105.944 18.8226 106.012 19.0266 106.148 19.1513C106.284 19.276 106.511 19.3383 106.828 19.3383H107.865Z" fill="#354147"/>
<path fill-rule="evenodd" clip-rule="evenodd" d="M13.2295 2.80328C7.31196 2.80328 2.50928 7.8341 2.50928 14.0328C2.50928 20.2315 7.31196 25.2623 13.2295 25.2623C19.1471 25.2623 23.9498 20.2315 23.9498 14.0328C23.9498 7.8341 19.1471 2.80328 13.2295 2.80328ZM7.94445 21.0849C8.40542 20.0743 11.2141 19.0861 13.2295 19.0861C15.245 19.0861 18.0644 20.0743 18.5146 21.0849C17.0567 22.2977 15.2235 23.0164 13.2295 23.0164C11.2356 23.0164 9.40241 22.2977 7.94445 21.0849ZM20.0476 19.4566C18.5146 17.5027 14.7947 16.8402 13.2295 16.8402C11.6644 16.8402 7.94445 17.5027 6.41145 19.4566C5.31799 17.9519 4.65333 16.0766 4.65333 14.0328C4.65333 9.08058 8.50191 5.04919 13.2295 5.04919C17.9572 5.04919 21.8058 9.08058 21.8058 14.0328C21.8058 16.0766 21.1411 17.9519 20.0476 19.4566ZM13.2295 7.29509C11.1498 7.29509 9.47745 9.04689 9.47745 11.2254C9.47745 13.4039 11.1498 15.1557 13.2295 15.1557C15.3093 15.1557 16.9816 13.4039 16.9816 11.2254C16.9816 9.04689 15.3093 7.29509 13.2295 7.29509ZM13.2295 12.9098C12.3398 12.9098 11.6215 12.1575 11.6215 11.2254C11.6215 10.2934 12.3398 9.54099 13.2295 9.54099C14.1193 9.54099 14.8376 10.2934 14.8376 11.2254C14.8376 12.1575 14.1193 12.9098 13.2295 12.9098Z" fill="#354147"/>
<mask id="mask0_8313_486" style="mask-type:luminance" maskUnits="userSpaceOnUse" x="2" y="2" width="22" height="24">
<path fill-rule="evenodd" clip-rule="evenodd" d="M13.2295 2.80328C7.31196 2.80328 2.50928 7.8341 2.50928 14.0328C2.50928 20.2315 7.31196 25.2623 13.2295 25.2623C19.1471 25.2623 23.9498 20.2315 23.9498 14.0328C23.9498 7.8341 19.1471 2.80328 13.2295 2.80328ZM7.94445 21.0849C8.40542 20.0743 11.2141 19.0861 13.2295 19.0861C15.245 19.0861 18.0644 20.0743 18.5146 21.0849C17.0567 22.2977 15.2235 23.0164 13.2295 23.0164C11.2356 23.0164 9.40241 22.2977 7.94445 21.0849ZM20.0476 19.4566C18.5146 17.5027 14.7947 16.8402 13.2295 16.8402C11.6644 16.8402 7.94445 17.5027 6.41145 19.4566C5.31799 17.9519 4.65333 16.0766 4.65333 14.0328C4.65333 9.08058 8.50191 5.04919 13.2295 5.04919C17.9572 5.04919 21.8058 9.08058 21.8058 14.0328C21.8058 16.0766 21.1411 17.9519 20.0476 19.4566ZM13.2295 7.29509C11.1498 7.29509 9.47745 9.04689 9.47745 11.2254C9.47745 13.4039 11.1498 15.1557 13.2295 15.1557C15.3093 15.1557 16.9816 13.4039 16.9816 11.2254C16.9816 9.04689 15.3093 7.29509 13.2295 7.29509ZM13.2295 12.9098C12.3398 12.9098 11.6215 12.1575 11.6215 11.2254C11.6215 10.2934 12.3398 9.54099 13.2295 9.54099C14.1193 9.54099 14.8376 10.2934 14.8376 11.2254C14.8376 12.1575 14.1193 12.9098 13.2295 12.9098Z" fill="white"/>
</mask>
<g mask="url(#mask0_8313_486)">
</g>
</svg>
