<svg width="257" height="444" viewBox="0 0 257 444" fill="none" xmlns="http://www.w3.org/2000/svg">
<g filter="url(#filter0_d_1_123)">
<rect opacity="0.5" x="174" y="100" width="3" height="240" fill="white"/>
<rect x="174" y="100" width="3" height="60" fill="white"/>
<g clip-path="url(#clip0_1_123)">
<path d="M106.073 136.126C105.149 136.126 104.321 135.976 103.589 135.676C102.857 135.376 102.269 134.932 101.825 134.344C101.393 133.756 101.165 133.048 101.141 132.22H104.417C104.465 132.688 104.627 133.048 104.903 133.3C105.179 133.54 105.539 133.66 105.983 133.66C106.439 133.66 106.799 133.558 107.063 133.354C107.327 133.138 107.459 132.844 107.459 132.472C107.459 132.16 107.351 131.902 107.135 131.698C106.931 131.494 106.673 131.326 106.361 131.194C106.061 131.062 105.629 130.912 105.065 130.744C104.249 130.492 103.583 130.24 103.067 129.988C102.551 129.736 102.107 129.364 101.735 128.872C101.363 128.38 101.177 127.738 101.177 126.946C101.177 125.77 101.603 124.852 102.455 124.192C103.307 123.52 104.417 123.184 105.785 123.184C107.177 123.184 108.299 123.52 109.151 124.192C110.003 124.852 110.459 125.776 110.519 126.964H107.189C107.165 126.556 107.015 126.238 106.739 126.01C106.463 125.77 106.109 125.65 105.677 125.65C105.305 125.65 105.005 125.752 104.777 125.956C104.549 126.148 104.435 126.43 104.435 126.802C104.435 127.21 104.627 127.528 105.011 127.756C105.395 127.984 105.995 128.23 106.811 128.494C107.627 128.77 108.287 129.034 108.791 129.286C109.307 129.538 109.751 129.904 110.123 130.384C110.495 130.864 110.681 131.482 110.681 132.238C110.681 132.958 110.495 133.612 110.123 134.2C109.763 134.788 109.235 135.256 108.539 135.604C107.843 135.952 107.021 136.126 106.073 136.126ZM118.173 133.39V136H116.607C115.491 136 114.621 135.73 113.997 135.19C113.373 134.638 113.061 133.744 113.061 132.508V128.512H111.837V125.956H113.061V123.508H116.139V125.956H118.155V128.512H116.139V132.544C116.139 132.844 116.211 133.06 116.355 133.192C116.499 133.324 116.739 133.39 117.075 133.39H118.173ZM119.275 130.96C119.275 129.928 119.467 129.022 119.851 128.242C120.247 127.462 120.781 126.862 121.453 126.442C122.125 126.022 122.875 125.812 123.703 125.812C124.411 125.812 125.029 125.956 125.557 126.244C126.097 126.532 126.511 126.91 126.799 127.378V125.956H129.877V136H126.799V134.578C126.499 135.046 126.079 135.424 125.539 135.712C125.011 136 124.393 136.144 123.685 136.144C122.869 136.144 122.125 135.934 121.453 135.514C120.781 135.082 120.247 134.476 119.851 133.696C119.467 132.904 119.275 131.992 119.275 130.96ZM126.799 130.978C126.799 130.21 126.583 129.604 126.151 129.16C125.731 128.716 125.215 128.494 124.603 128.494C123.991 128.494 123.469 128.716 123.037 129.16C122.617 129.592 122.407 130.192 122.407 130.96C122.407 131.728 122.617 132.34 123.037 132.796C123.469 133.24 123.991 133.462 124.603 133.462C125.215 133.462 125.731 133.24 126.151 132.796C126.583 132.352 126.799 131.746 126.799 130.978ZM135.182 127.63C135.542 127.078 135.992 126.646 136.532 126.334C137.072 126.01 137.672 125.848 138.332 125.848V129.106H137.486C136.718 129.106 136.142 129.274 135.758 129.61C135.374 129.934 135.182 130.51 135.182 131.338V136H132.104V125.956H135.182V127.63ZM145.402 133.39V136H143.836C142.72 136 141.85 135.73 141.226 135.19C140.602 134.638 140.29 133.744 140.29 132.508V128.512H139.066V125.956H140.29V123.508H143.368V125.956H145.384V128.512H143.368V132.544C143.368 132.844 143.44 133.06 143.584 133.192C143.728 133.324 143.968 133.39 144.304 133.39H145.402Z" fill="white"/>
<path d="M128.3 196.25C128.3 194.186 128.696 192.56 129.488 191.372C130.292 190.184 131.582 189.59 133.358 189.59C135.134 189.59 136.418 190.184 137.21 191.372C138.014 192.56 138.416 194.186 138.416 196.25C138.416 198.338 138.014 199.976 137.21 201.164C136.418 202.352 135.134 202.946 133.358 202.946C131.582 202.946 130.292 202.352 129.488 201.164C128.696 199.976 128.3 198.338 128.3 196.25ZM135.392 196.25C135.392 195.038 135.26 194.108 134.996 193.46C134.732 192.8 134.186 192.47 133.358 192.47C132.53 192.47 131.984 192.8 131.72 193.46C131.456 194.108 131.324 195.038 131.324 196.25C131.324 197.066 131.372 197.744 131.468 198.284C131.564 198.812 131.756 199.244 132.044 199.58C132.344 199.904 132.782 200.066 133.358 200.066C133.934 200.066 134.366 199.904 134.654 199.58C134.954 199.244 135.152 198.812 135.248 198.284C135.344 197.744 135.392 197.066 135.392 196.25ZM139.718 192.722V189.86H144.704V203H141.5V192.722H139.718Z" fill="white"/>
<path d="M124.785 263.25C124.785 261.186 125.181 259.56 125.973 258.372C126.777 257.184 128.067 256.59 129.843 256.59C131.619 256.59 132.903 257.184 133.695 258.372C134.499 259.56 134.901 261.186 134.901 263.25C134.901 265.338 134.499 266.976 133.695 268.164C132.903 269.352 131.619 269.946 129.843 269.946C128.067 269.946 126.777 269.352 125.973 268.164C125.181 266.976 124.785 265.338 124.785 263.25ZM131.877 263.25C131.877 262.038 131.745 261.108 131.481 260.46C131.217 259.8 130.671 259.47 129.843 259.47C129.015 259.47 128.469 259.8 128.205 260.46C127.941 261.108 127.809 262.038 127.809 263.25C127.809 264.066 127.857 264.744 127.953 265.284C128.049 265.812 128.241 266.244 128.529 266.58C128.829 266.904 129.267 267.066 129.843 267.066C130.419 267.066 130.851 266.904 131.139 266.58C131.439 266.244 131.637 265.812 131.733 265.284C131.829 264.744 131.877 264.066 131.877 263.25ZM136.419 267.534C136.827 267.21 137.013 267.06 136.977 267.084C138.153 266.112 139.077 265.314 139.749 264.69C140.433 264.066 141.009 263.412 141.477 262.728C141.945 262.044 142.179 261.378 142.179 260.73C142.179 260.238 142.065 259.854 141.837 259.578C141.609 259.302 141.267 259.164 140.811 259.164C140.355 259.164 139.995 259.338 139.731 259.686C139.479 260.022 139.353 260.502 139.353 261.126H136.383C136.407 260.106 136.623 259.254 137.031 258.57C137.451 257.886 137.997 257.382 138.669 257.058C139.353 256.734 140.109 256.572 140.937 256.572C142.365 256.572 143.439 256.938 144.159 257.67C144.891 258.402 145.257 259.356 145.257 260.532C145.257 261.816 144.819 263.01 143.943 264.114C143.067 265.206 141.951 266.274 140.595 267.318H145.455V269.82H136.419V267.534Z" fill="white"/>
<path d="M124.169 330.25C124.169 328.186 124.565 326.56 125.357 325.372C126.161 324.184 127.451 323.59 129.227 323.59C131.003 323.59 132.287 324.184 133.079 325.372C133.883 326.56 134.285 328.186 134.285 330.25C134.285 332.338 133.883 333.976 133.079 335.164C132.287 336.352 131.003 336.946 129.227 336.946C127.451 336.946 126.161 336.352 125.357 335.164C124.565 333.976 124.169 332.338 124.169 330.25ZM131.261 330.25C131.261 329.038 131.129 328.108 130.865 327.46C130.601 326.8 130.055 326.47 129.227 326.47C128.399 326.47 127.853 326.8 127.589 327.46C127.325 328.108 127.193 329.038 127.193 330.25C127.193 331.066 127.241 331.744 127.337 332.284C127.433 332.812 127.625 333.244 127.913 333.58C128.213 333.904 128.651 334.066 129.227 334.066C129.803 334.066 130.235 333.904 130.523 333.58C130.823 333.244 131.021 332.812 131.117 332.284C131.213 331.744 131.261 331.066 131.261 330.25ZM136.02 327.568C136.068 326.284 136.488 325.294 137.28 324.598C138.072 323.902 139.146 323.554 140.502 323.554C141.402 323.554 142.17 323.71 142.806 324.022C143.454 324.334 143.94 324.76 144.264 325.3C144.6 325.84 144.768 326.446 144.768 327.118C144.768 327.91 144.57 328.558 144.174 329.062C143.778 329.554 143.316 329.89 142.788 330.07V330.142C143.472 330.37 144.012 330.748 144.408 331.276C144.804 331.804 145.002 332.482 145.002 333.31C145.002 334.054 144.828 334.714 144.48 335.29C144.144 335.854 143.646 336.298 142.986 336.622C142.338 336.946 141.564 337.108 140.664 337.108C139.224 337.108 138.072 336.754 137.208 336.046C136.356 335.338 135.906 334.27 135.858 332.842H138.846C138.858 333.37 139.008 333.79 139.296 334.102C139.584 334.402 140.004 334.552 140.556 334.552C141.024 334.552 141.384 334.42 141.636 334.156C141.9 333.88 142.032 333.52 142.032 333.076C142.032 332.5 141.846 332.086 141.474 331.834C141.114 331.57 140.532 331.438 139.728 331.438H139.152V328.936H139.728C140.34 328.936 140.832 328.834 141.204 328.63C141.588 328.414 141.78 328.036 141.78 327.496C141.78 327.064 141.66 326.728 141.42 326.488C141.18 326.248 140.85 326.128 140.43 326.128C139.974 326.128 139.632 326.266 139.404 326.542C139.188 326.818 139.062 327.16 139.026 327.568H136.02Z" fill="white"/>
</g>
</g>
<defs>
<filter id="filter0_d_1_123" x="0" y="0" width="277" height="444" filterUnits="userSpaceOnUse" color-interpolation-filters="sRGB">
<feFlood flood-opacity="0" result="BackgroundImageFix"/>
<feColorMatrix in="SourceAlpha" type="matrix" values="0 0 0 0 0 0 0 0 0 0 0 0 0 0 0 0 0 0 127 0" result="hardAlpha"/>
<feOffset/>
<feGaussianBlur stdDeviation="50"/>
<feColorMatrix type="matrix" values="0 0 0 0 0 0 0 0 0 0 0 0 0 0 0 0 0 0 0.2 0"/>
<feBlend mode="normal" in2="BackgroundImageFix" result="effect1_dropShadow_1_123"/>
<feBlend mode="normal" in="SourceGraphic" in2="effect1_dropShadow_1_123" result="shape"/>
</filter>
<clipPath id="clip0_1_123">
<rect width="46" height="228" fill="white" transform="translate(100 116)"/>
</clipPath>
</defs>
</svg>
