<svg width="277" height="180" viewBox="0 0 277 180" fill="none" xmlns="http://www.w3.org/2000/svg">
<path opacity="0.1" d="M0.8 90C0.8 62.48 6.08 40.8 16.64 24.96C27.36 9.11999 44.56 1.19998 68.24 1.19998C91.92 1.19998 109.04 9.11999 119.6 24.96C130.32 40.8 135.68 62.48 135.68 90C135.68 117.84 130.32 139.68 119.6 155.52C109.04 171.36 91.92 179.28 68.24 179.28C44.56 179.28 27.36 171.36 16.64 155.52C6.08 139.68 0.8 117.84 0.8 90ZM95.36 90C95.36 73.84 93.6 61.44 90.08 52.8C86.56 44 79.28 39.6 68.24 39.6C57.2 39.6 49.92 44 46.4 52.8C42.88 61.44 41.12 73.84 41.12 90C41.12 100.88 41.76 109.92 43.04 117.12C44.32 124.16 46.88 129.92 50.72 134.4C54.72 138.72 60.56 140.88 68.24 140.88C75.92 140.88 81.68 138.72 85.52 134.4C89.52 129.92 92.16 124.16 93.44 117.12C94.72 109.92 95.36 100.88 95.36 90ZM155.923 147.12C161.363 142.8 163.843 140.8 163.363 141.12C179.043 128.16 191.363 117.52 200.323 109.2C209.443 100.88 217.123 92.16 223.363 83.04C229.603 73.92 232.723 65.04 232.723 56.4C232.723 49.84 231.203 44.72 228.163 41.04C225.123 37.36 220.563 35.52 214.483 35.52C208.403 35.52 203.603 37.84 200.083 42.48C196.723 46.96 195.043 53.36 195.043 61.68H155.443C155.763 48.08 158.643 36.72 164.083 27.6C169.683 18.48 176.963 11.76 185.923 7.43999C195.043 3.11999 205.123 0.959988 216.163 0.959988C235.203 0.959988 249.523 5.83999 259.123 15.6C268.883 25.36 273.763 38.08 273.763 53.76C273.763 70.88 267.923 86.8 256.243 101.52C244.563 116.08 229.683 130.32 211.603 144.24H276.403V177.6H155.923V147.12Z" fill="white"/>
</svg>
