<svg width="279" height="182" viewBox="0 0 279 182" fill="none" xmlns="http://www.w3.org/2000/svg">
<path opacity="0.1" d="M0.8 90C0.8 62.48 6.08 40.8 16.64 24.96C27.36 9.11999 44.56 1.19998 68.24 1.19998C91.92 1.19998 109.04 9.11999 119.6 24.96C130.32 40.8 135.68 62.48 135.68 90C135.68 117.84 130.32 139.68 119.6 155.52C109.04 171.36 91.92 179.28 68.24 179.28C44.56 179.28 27.36 171.36 16.64 155.52C6.08 139.68 0.8 117.84 0.8 90ZM95.36 90C95.36 73.84 93.6 61.44 90.08 52.8C86.56 44 79.28 39.6 68.24 39.6C57.2 39.6 49.92 44 46.4 52.8C42.88 61.44 41.12 73.84 41.12 90C41.12 100.88 41.76 109.92 43.04 117.12C44.32 124.16 46.88 129.92 50.72 134.4C54.72 138.72 60.56 140.88 68.24 140.88C75.92 140.88 81.68 138.72 85.52 134.4C89.52 129.92 92.16 124.16 93.44 117.12C94.72 109.92 95.36 100.88 95.36 90ZM158.803 54.24C159.443 37.12 165.043 23.92 175.603 14.64C186.163 5.35999 200.483 0.719991 218.563 0.719991C230.563 0.719991 240.803 2.79999 249.283 6.96C257.923 11.12 264.403 16.8 268.723 24C273.203 31.2 275.443 39.28 275.443 48.24C275.443 58.8 272.803 67.44 267.523 74.16C262.243 80.72 256.083 85.2 249.043 87.6V88.56C258.163 91.6 265.363 96.64 270.643 103.68C275.923 110.72 278.563 119.76 278.563 130.8C278.563 140.72 276.243 149.52 271.603 157.2C267.123 164.72 260.483 170.64 251.683 174.96C243.043 179.28 232.723 181.44 220.723 181.44C201.523 181.44 186.163 176.72 174.643 167.28C163.283 157.84 157.283 143.6 156.643 124.56H196.483C196.643 131.6 198.643 137.2 202.483 141.36C206.323 145.36 211.923 147.36 219.283 147.36C225.523 147.36 230.323 145.6 233.683 142.08C237.203 138.4 238.963 133.6 238.963 127.68C238.963 120 236.483 114.48 231.523 111.12C226.723 107.6 218.963 105.84 208.242 105.84H200.563V72.48H208.242C216.403 72.48 222.963 71.12 227.923 68.4C233.043 65.52 235.603 60.48 235.603 53.28C235.603 47.52 234.003 43.04 230.803 39.84C227.603 36.64 223.203 35.04 217.603 35.04C211.523 35.04 206.963 36.88 203.923 40.56C201.043 44.24 199.363 48.8 198.883 54.24H158.803Z" fill="white"/>
</svg>
