<svg width="220" height="179" viewBox="0 0 220 179" fill="none" xmlns="http://www.w3.org/2000/svg">
<path opacity="0.1" d="M0.8 89C0.8 61.48 6.08 39.8 16.64 23.96C27.36 8.11999 44.56 0.199985 68.24 0.199985C91.92 0.199985 109.04 8.11999 119.6 23.96C130.32 39.8 135.68 61.48 135.68 89C135.68 116.84 130.32 138.68 119.6 154.52C109.04 170.36 91.92 178.28 68.24 178.28C44.56 178.28 27.36 170.36 16.64 154.52C6.08 138.68 0.8 116.84 0.8 89ZM95.36 89C95.36 72.84 93.6 60.44 90.08 51.8C86.56 43 79.28 38.6 68.24 38.6C57.2 38.6 49.92 43 46.4 51.8C42.88 60.44 41.12 72.84 41.12 89C41.12 99.88 41.76 108.92 43.04 116.12C44.32 123.16 46.88 128.92 50.72 133.4C54.72 137.72 60.56 139.88 68.24 139.88C75.92 139.88 81.68 137.72 85.52 133.4C89.52 128.92 92.16 123.16 93.44 116.12C94.72 108.92 95.36 99.88 95.36 89ZM153.043 41.96V3.8H219.523V179H176.803V41.96H153.043Z" fill="white"/>
</svg>
