<svg width="126" height="28" viewBox="0 0 126 28" fill="none" xmlns="http://www.w3.org/2000/svg">
<path d="M5.202 21.144C4.326 21.144 3.546 20.994 2.862 20.694C2.178 20.394 1.638 19.986 1.242 19.47C0.846 18.942 0.624 18.354 0.576 17.706H3.618C3.654 18.054 3.816 18.336 4.104 18.552C4.392 18.768 4.746 18.876 5.166 18.876C5.55 18.876 5.844 18.804 6.048 18.66C6.264 18.504 6.372 18.306 6.372 18.066C6.372 17.778 6.222 17.568 5.922 17.436C5.622 17.292 5.136 17.136 4.464 16.968C3.744 16.8 3.144 16.626 2.664 16.446C2.184 16.254 1.77 15.96 1.422 15.564C1.074 15.156 0.9 14.61 0.9 13.926C0.9 13.35 1.056 12.828 1.368 12.36C1.692 11.88 2.16 11.502 2.772 11.226C3.396 10.95 4.134 10.812 4.986 10.812C6.246 10.812 7.236 11.124 7.956 11.748C8.688 12.372 9.108 13.2 9.216 14.232H6.372C6.324 13.884 6.168 13.608 5.904 13.404C5.652 13.2 5.316 13.098 4.896 13.098C4.536 13.098 4.26 13.17 4.068 13.314C3.876 13.446 3.78 13.632 3.78 13.872C3.78 14.16 3.93 14.376 4.23 14.52C4.542 14.664 5.022 14.808 5.67 14.952C6.414 15.144 7.02 15.336 7.488 15.528C7.956 15.708 8.364 16.008 8.712 16.428C9.072 16.836 9.258 17.388 9.27 18.084C9.27 18.672 9.102 19.2 8.766 19.668C8.442 20.124 7.968 20.484 7.344 20.748C6.732 21.012 6.018 21.144 5.202 21.144ZM10.5411 15.978C10.5411 14.934 10.7511 14.022 11.1711 13.242C11.6031 12.462 12.1971 11.862 12.9531 11.442C13.7211 11.022 14.5971 10.812 15.5811 10.812C16.8411 10.812 17.8911 11.142 18.7311 11.802C19.5831 12.462 20.1411 13.392 20.4051 14.592H17.1291C16.8531 13.824 16.3191 13.44 15.5271 13.44C14.9631 13.44 14.5131 13.662 14.1771 14.106C13.8411 14.538 13.6731 15.162 13.6731 15.978C13.6731 16.794 13.8411 17.424 14.1771 17.868C14.5131 18.3 14.9631 18.516 15.5271 18.516C16.3191 18.516 16.8531 18.132 17.1291 17.364H20.4051C20.1411 18.54 19.5831 19.464 18.7311 20.136C17.8791 20.808 16.8291 21.144 15.5811 21.144C14.5971 21.144 13.7211 20.934 12.9531 20.514C12.1971 20.094 11.6031 19.494 11.1711 18.714C10.7511 17.934 10.5411 17.022 10.5411 15.978ZM25.1295 12.63C25.4895 12.078 25.9395 11.646 26.4795 11.334C27.0195 11.01 27.6195 10.848 28.2795 10.848V14.106H27.4335C26.6655 14.106 26.0895 14.274 25.7055 14.61C25.3215 14.934 25.1295 15.51 25.1295 16.338V21H22.0515V10.956H25.1295V12.63ZM34.3228 21.144C33.3388 21.144 32.4508 20.934 31.6588 20.514C30.8788 20.094 30.2608 19.494 29.8048 18.714C29.3608 17.934 29.1388 17.022 29.1388 15.978C29.1388 14.946 29.3668 14.04 29.8228 13.26C30.2788 12.468 30.9028 11.862 31.6948 11.442C32.4868 11.022 33.3748 10.812 34.3588 10.812C35.3428 10.812 36.2308 11.022 37.0228 11.442C37.8148 11.862 38.4388 12.468 38.8948 13.26C39.3508 14.04 39.5788 14.946 39.5788 15.978C39.5788 17.01 39.3448 17.922 38.8768 18.714C38.4208 19.494 37.7908 20.094 36.9868 20.514C36.1948 20.934 35.3068 21.144 34.3228 21.144ZM34.3228 18.48C34.9108 18.48 35.4088 18.264 35.8168 17.832C36.2368 17.4 36.4468 16.782 36.4468 15.978C36.4468 15.174 36.2428 14.556 35.8348 14.124C35.4388 13.692 34.9468 13.476 34.3588 13.476C33.7588 13.476 33.2608 13.692 32.8648 14.124C32.4688 14.544 32.2708 15.162 32.2708 15.978C32.2708 16.782 32.4628 17.4 32.8468 17.832C33.2428 18.264 33.7348 18.48 34.3228 18.48ZM44.2897 7.68V21H41.2117V7.68H44.2897ZM49.5983 7.68V21H46.5203V7.68H49.5983ZM55.0313 15.96C55.0313 14.928 55.2233 14.022 55.6073 13.242C56.0033 12.462 56.5373 11.862 57.2093 11.442C57.8813 11.022 58.6313 10.812 59.4593 10.812C60.1193 10.812 60.7193 10.95 61.2593 11.226C61.8113 11.502 62.2433 11.874 62.5553 12.342V7.68H65.6333V21H62.5553V19.56C62.2673 20.04 61.8533 20.424 61.3133 20.712C60.7853 21 60.1673 21.144 59.4593 21.144C58.6313 21.144 57.8813 20.934 57.2093 20.514C56.5373 20.082 56.0033 19.476 55.6073 18.696C55.2233 17.904 55.0313 16.992 55.0313 15.96ZM62.5553 15.978C62.5553 15.21 62.3393 14.604 61.9073 14.16C61.4873 13.716 60.9713 13.494 60.3593 13.494C59.7473 13.494 59.2253 13.716 58.7933 14.16C58.3733 14.592 58.1633 15.192 58.1633 15.96C58.1633 16.728 58.3733 17.34 58.7933 17.796C59.2253 18.24 59.7473 18.462 60.3593 18.462C60.9713 18.462 61.4873 18.24 61.9073 17.796C62.3393 17.352 62.5553 16.746 62.5553 15.978ZM72.4321 21.144C71.4481 21.144 70.5601 20.934 69.7681 20.514C68.9881 20.094 68.3701 19.494 67.9141 18.714C67.4701 17.934 67.2481 17.022 67.2481 15.978C67.2481 14.946 67.4761 14.04 67.9321 13.26C68.3881 12.468 69.0121 11.862 69.8041 11.442C70.5961 11.022 71.4841 10.812 72.4681 10.812C73.4521 10.812 74.3401 11.022 75.1321 11.442C75.9241 11.862 76.5481 12.468 77.0041 13.26C77.4601 14.04 77.6881 14.946 77.6881 15.978C77.6881 17.01 77.4541 17.922 76.9861 18.714C76.5301 19.494 75.9001 20.094 75.0961 20.514C74.3041 20.934 73.4161 21.144 72.4321 21.144ZM72.4321 18.48C73.0201 18.48 73.5181 18.264 73.9261 17.832C74.3461 17.4 74.5561 16.782 74.5561 15.978C74.5561 15.174 74.3521 14.556 73.9441 14.124C73.5481 13.692 73.0561 13.476 72.4681 13.476C71.8681 13.476 71.3701 13.692 70.9741 14.124C70.5781 14.544 70.3801 15.162 70.3801 15.978C70.3801 16.782 70.5721 17.4 70.9561 17.832C71.3521 18.264 71.8441 18.48 72.4321 18.48ZM93.7391 10.956L91.0211 21H87.6191L86.0351 14.484L84.3971 21H81.0131L78.2771 10.956H81.3551L82.7771 18.138L84.4691 10.956H87.7271L89.4371 18.102L90.8411 10.956H93.7391ZM101.033 10.848C102.209 10.848 103.145 11.232 103.841 12C104.549 12.756 104.903 13.8 104.903 15.132V21H101.843V15.546C101.843 14.874 101.669 14.352 101.321 13.98C100.973 13.608 100.505 13.422 99.9169 13.422C99.3289 13.422 98.8609 13.608 98.5129 13.98C98.1649 14.352 97.9909 14.874 97.9909 15.546V21H94.9129V10.956H97.9909V12.288C98.3029 11.844 98.7229 11.496 99.2509 11.244C99.7789 10.98 100.373 10.848 101.033 10.848Z" fill="white"/>
<path d="M126 16L124.59 14.59L119 20.17V0H117V20.17L111.42 14.58L110 16L118 24L126 16Z" fill="white"/>
</svg>
