<svg width="323" height="27" viewBox="0 0 323 27" fill="none" xmlns="http://www.w3.org/2000/svg">
<path d="M113.036 17.93H108.536L107.852 20H104.144L108.77 7.31H112.838L117.446 20H113.72L113.036 17.93ZM112.154 15.23L110.786 11.126L109.436 15.23H112.154ZM145.399 7.31V20H141.871V14.906H137.569V20H134.041V7.31H137.569V12.08H141.871V7.31H145.399ZM156.946 7.31V20H153.418V7.31H156.946ZM172.461 20L168.483 14.438V20H164.955V7.31H168.483V12.782L172.425 7.31H176.493L171.831 13.466L176.727 20H172.461ZM187.544 7.31V20H184.016V7.31H187.544ZM207.307 20H203.779L199.081 12.908V20H195.553V7.31H199.081L203.779 14.492V7.31H207.307V20ZM223.417 11.486C223.213 11.15 222.931 10.892 222.571 10.712C222.223 10.532 221.809 10.442 221.329 10.442C220.441 10.442 219.739 10.73 219.223 11.306C218.719 11.882 218.467 12.656 218.467 13.628C218.467 14.72 218.737 15.554 219.277 16.13C219.829 16.694 220.627 16.976 221.671 16.976C222.907 16.976 223.789 16.418 224.317 15.302H220.771V12.764H227.359V16.184C227.083 16.856 226.675 17.486 226.135 18.074C225.607 18.662 224.935 19.148 224.119 19.532C223.303 19.904 222.373 20.09 221.329 20.09C220.057 20.09 218.929 19.82 217.945 19.28C216.973 18.728 216.217 17.966 215.677 16.994C215.149 16.01 214.885 14.888 214.885 13.628C214.885 12.38 215.149 11.27 215.677 10.298C216.217 9.314 216.973 8.552 217.945 8.012C218.917 7.46 220.039 7.184 221.311 7.184C222.907 7.184 224.227 7.568 225.271 8.336C226.315 9.104 226.963 10.154 227.215 11.486H223.417ZM252.485 11.486C252.281 11.15 251.999 10.892 251.639 10.712C251.291 10.532 250.877 10.442 250.397 10.442C249.509 10.442 248.807 10.73 248.291 11.306C247.787 11.882 247.535 12.656 247.535 13.628C247.535 14.72 247.805 15.554 248.345 16.13C248.897 16.694 249.695 16.976 250.739 16.976C251.975 16.976 252.857 16.418 253.385 15.302H249.839V12.764H256.427V16.184C256.151 16.856 255.743 17.486 255.203 18.074C254.675 18.662 254.003 19.148 253.187 19.532C252.371 19.904 251.441 20.09 250.397 20.09C249.125 20.09 247.997 19.82 247.013 19.28C246.041 18.728 245.285 17.966 244.745 16.994C244.217 16.01 243.953 14.888 243.953 13.628C243.953 12.38 244.217 11.27 244.745 10.298C245.285 9.314 246.041 8.552 247.013 8.012C247.985 7.46 249.107 7.184 250.379 7.184C251.975 7.184 253.295 7.568 254.339 8.336C255.383 9.104 256.031 10.154 256.283 11.486H252.485ZM267.464 7.31V14.672C267.464 15.356 267.62 15.884 267.932 16.256C268.256 16.628 268.742 16.814 269.39 16.814C270.038 16.814 270.524 16.628 270.848 16.256C271.184 15.872 271.352 15.344 271.352 14.672V7.31H274.88V14.672C274.88 15.836 274.634 16.832 274.142 17.66C273.65 18.476 272.978 19.094 272.126 19.514C271.286 19.922 270.35 20.126 269.318 20.126C268.286 20.126 267.362 19.922 266.546 19.514C265.742 19.094 265.106 18.476 264.638 17.66C264.182 16.844 263.954 15.848 263.954 14.672V7.31H267.464ZM286.35 7.31V20H282.822V7.31H286.35ZM299.382 7.31C300.714 7.31 301.878 7.58 302.874 8.12C303.882 8.648 304.656 9.392 305.196 10.352C305.736 11.312 306.006 12.41 306.006 13.646C306.006 14.87 305.73 15.962 305.178 16.922C304.638 17.882 303.864 18.638 302.856 19.19C301.86 19.73 300.702 20 299.382 20H294.36V7.31H299.382ZM299.112 16.886C300.144 16.886 300.954 16.604 301.542 16.04C302.13 15.476 302.424 14.678 302.424 13.646C302.424 12.602 302.13 11.798 301.542 11.234C300.954 10.658 300.144 10.37 299.112 10.37H297.888V16.886H299.112ZM317.124 10.136V12.206H321.174V14.888H317.124V17.174H321.714V20H313.596V7.31H321.714V10.136H317.124Z" fill="#FBD784"/>
<rect y="10" width="72" height="2" fill="#FBD784"/>
</svg>
