<svg width="127" height="27" viewBox="0 0 127 27" fill="none" xmlns="http://www.w3.org/2000/svg">
<path d="M4.194 11.63C4.554 11.078 5.004 10.646 5.544 10.334C6.084 10.01 6.684 9.848 7.344 9.848V13.106H6.498C5.73 13.106 5.154 13.274 4.77 13.61C4.386 13.934 4.194 14.51 4.194 15.338V20H1.116V9.956H4.194V11.63ZM18.2832 14.816C18.2832 15.104 18.2652 15.404 18.2292 15.716H11.2632C11.3112 16.34 11.5092 16.82 11.8572 17.156C12.2172 17.48 12.6552 17.642 13.1712 17.642C13.9392 17.642 14.4732 17.318 14.7732 16.67H18.0492C17.8812 17.33 17.5752 17.924 17.1312 18.452C16.6992 18.98 16.1532 19.394 15.4932 19.694C14.8332 19.994 14.0952 20.144 13.2792 20.144C12.2952 20.144 11.4192 19.934 10.6512 19.514C9.88322 19.094 9.28322 18.494 8.85122 17.714C8.41922 16.934 8.20322 16.022 8.20322 14.978C8.20322 13.934 8.41322 13.022 8.83322 12.242C9.26522 11.462 9.86522 10.862 10.6332 10.442C11.4012 10.022 12.2832 9.812 13.2792 9.812C14.2512 9.812 15.1152 10.016 15.8712 10.424C16.6272 10.832 17.2152 11.414 17.6352 12.17C18.0672 12.926 18.2832 13.808 18.2832 14.816ZM15.1332 14.006C15.1332 13.478 14.9532 13.058 14.5932 12.746C14.2332 12.434 13.7832 12.278 13.2432 12.278C12.7272 12.278 12.2892 12.428 11.9292 12.728C11.5812 13.028 11.3652 13.454 11.2812 14.006H15.1332ZM19.295 14.96C19.295 13.928 19.487 13.022 19.871 12.242C20.267 11.462 20.801 10.862 21.473 10.442C22.145 10.022 22.895 9.812 23.723 9.812C24.431 9.812 25.049 9.956 25.577 10.244C26.117 10.532 26.531 10.91 26.819 11.378V9.956H29.897V20H26.819V18.578C26.519 19.046 26.099 19.424 25.559 19.712C25.031 20 24.413 20.144 23.705 20.144C22.889 20.144 22.145 19.934 21.473 19.514C20.801 19.082 20.267 18.476 19.871 17.696C19.487 16.904 19.295 15.992 19.295 14.96ZM26.819 14.978C26.819 14.21 26.603 13.604 26.171 13.16C25.751 12.716 25.235 12.494 24.623 12.494C24.011 12.494 23.489 12.716 23.057 13.16C22.637 13.592 22.427 14.192 22.427 14.96C22.427 15.728 22.637 16.34 23.057 16.796C23.489 17.24 24.011 17.462 24.623 17.462C25.235 17.462 25.751 17.24 26.171 16.796C26.603 16.352 26.819 15.746 26.819 14.978ZM31.5118 14.96C31.5118 13.928 31.7038 13.022 32.0878 12.242C32.4838 11.462 33.0178 10.862 33.6898 10.442C34.3618 10.022 35.1118 9.812 35.9398 9.812C36.5998 9.812 37.1998 9.95 37.7398 10.226C38.2918 10.502 38.7238 10.874 39.0358 11.342V6.68H42.1138V20H39.0358V18.56C38.7478 19.04 38.3338 19.424 37.7938 19.712C37.2658 20 36.6478 20.144 35.9398 20.144C35.1118 20.144 34.3618 19.934 33.6898 19.514C33.0178 19.082 32.4838 18.476 32.0878 17.696C31.7038 16.904 31.5118 15.992 31.5118 14.96ZM39.0358 14.978C39.0358 14.21 38.8198 13.604 38.3878 13.16C37.9678 12.716 37.4518 12.494 36.8398 12.494C36.2278 12.494 35.7058 12.716 35.2738 13.16C34.8538 13.592 34.6438 14.192 34.6438 14.96C34.6438 15.728 34.8538 16.34 35.2738 16.796C35.7058 17.24 36.2278 17.462 36.8398 17.462C37.4518 17.462 37.9678 17.24 38.3878 16.796C38.8198 16.352 39.0358 15.746 39.0358 14.978ZM60.9711 9.848C62.2191 9.848 63.2091 10.226 63.9411 10.982C64.6851 11.738 65.0571 12.788 65.0571 14.132V20H61.9971V14.546C61.9971 13.898 61.8231 13.4 61.4751 13.052C61.1391 12.692 60.6711 12.512 60.0711 12.512C59.4711 12.512 58.9971 12.692 58.6491 13.052C58.3131 13.4 58.1451 13.898 58.1451 14.546V20H55.0851V14.546C55.0851 13.898 54.9111 13.4 54.5631 13.052C54.2271 12.692 53.7591 12.512 53.1591 12.512C52.5591 12.512 52.0851 12.692 51.7371 13.052C51.4011 13.4 51.2331 13.898 51.2331 14.546V20H48.1551V9.956H51.2331V11.216C51.5451 10.796 51.9531 10.466 52.4571 10.226C52.9611 9.974 53.5311 9.848 54.1671 9.848C54.9231 9.848 55.5951 10.01 56.1831 10.334C56.7831 10.658 57.2511 11.12 57.5871 11.72C57.9351 11.168 58.4091 10.718 59.0091 10.37C59.6091 10.022 60.2631 9.848 60.9711 9.848ZM71.7818 20.144C70.7978 20.144 69.9098 19.934 69.1178 19.514C68.3378 19.094 67.7198 18.494 67.2638 17.714C66.8198 16.934 66.5978 16.022 66.5978 14.978C66.5978 13.946 66.8258 13.04 67.2817 12.26C67.7378 11.468 68.3618 10.862 69.1538 10.442C69.9458 10.022 70.8338 9.812 71.8178 9.812C72.8018 9.812 73.6898 10.022 74.4818 10.442C75.2738 10.862 75.8978 11.468 76.3538 12.26C76.8098 13.04 77.0378 13.946 77.0378 14.978C77.0378 16.01 76.8038 16.922 76.3358 17.714C75.8798 18.494 75.2498 19.094 74.4458 19.514C73.6538 19.934 72.7658 20.144 71.7818 20.144ZM71.7818 17.48C72.3698 17.48 72.8678 17.264 73.2758 16.832C73.6958 16.4 73.9058 15.782 73.9058 14.978C73.9058 14.174 73.7018 13.556 73.2938 13.124C72.8978 12.692 72.4058 12.476 71.8178 12.476C71.2178 12.476 70.7198 12.692 70.3238 13.124C69.9278 13.544 69.7298 14.162 69.7298 14.978C69.7298 15.782 69.9218 16.4 70.3058 16.832C70.7018 17.264 71.1938 17.48 71.7818 17.48ZM81.7487 11.63C82.1087 11.078 82.5587 10.646 83.0987 10.334C83.6387 10.01 84.2387 9.848 84.8987 9.848V13.106H84.0527C83.2847 13.106 82.7087 13.274 82.3247 13.61C81.9407 13.934 81.7487 14.51 81.7487 15.338V20H78.6707V9.956H81.7487V11.63ZM95.8379 14.816C95.8379 15.104 95.8199 15.404 95.7839 15.716H88.8179C88.8659 16.34 89.0639 16.82 89.4119 17.156C89.7719 17.48 90.2099 17.642 90.7259 17.642C91.4939 17.642 92.0279 17.318 92.3279 16.67H95.6039C95.4359 17.33 95.1299 17.924 94.6859 18.452C94.2539 18.98 93.7079 19.394 93.0479 19.694C92.3879 19.994 91.6499 20.144 90.8339 20.144C89.8499 20.144 88.9739 19.934 88.2059 19.514C87.4379 19.094 86.8379 18.494 86.4059 17.714C85.9739 16.934 85.7579 16.022 85.7579 14.978C85.7579 13.934 85.9679 13.022 86.3879 12.242C86.8199 11.462 87.4199 10.862 88.1879 10.442C88.9559 10.022 89.8379 9.812 90.8339 9.812C91.8059 9.812 92.6699 10.016 93.4259 10.424C94.1819 10.832 94.7699 11.414 95.1899 12.17C95.6219 12.926 95.8379 13.808 95.8379 14.816ZM92.6879 14.006C92.6879 13.478 92.5079 13.058 92.1479 12.746C91.7879 12.434 91.3379 12.278 90.7979 12.278C90.2819 12.278 89.8439 12.428 89.4839 12.728C89.1359 13.028 88.9199 13.454 88.8359 14.006H92.6879Z" fill="#FBD784"/>
<path d="M119 3L117.59 4.41L123.17 10L103 10L103 12L123.17 12L117.58 17.58L119 19L127 11L119 3Z" fill="#FBD784"/>
</svg>
