<svg width="24" height="146" viewBox="0 0 24 146" fill="none" xmlns="http://www.w3.org/2000/svg">
<path d="M17.168 8L15.36 8L15.36 3.344L12.496 3.344L12.496 6.912L10.72 6.912L10.72 3.344L6 3.344L6 1.104L17.168 1.104L17.168 8ZM5.856 13.5244C5.856 12.671 6.04267 11.903 6.416 11.2204C6.8 10.5377 7.33867 9.99904 8.032 9.60437C8.72533 9.22037 9.52533 9.02837 10.432 9.02837C11.3387 9.02837 12.1387 9.22571 12.832 9.62037C13.5253 10.0257 14.0587 10.575 14.432 11.2684C14.816 11.9617 15.008 12.735 15.008 13.5884C15.008 14.4417 14.816 15.215 14.432 15.9084C14.0587 16.6017 13.5253 17.1457 12.832 17.5404C12.1387 17.9457 11.3387 18.1484 10.432 18.1484C9.52533 18.1484 8.72533 17.9404 8.032 17.5244C7.33867 17.119 6.8 16.5644 6.416 15.8604C6.04267 15.167 5.856 14.3884 5.856 13.5244ZM7.808 13.5244C7.808 13.9297 7.904 14.3084 8.096 14.6604C8.29867 15.023 8.59733 15.311 8.992 15.5244C9.38667 15.7377 9.86667 15.8444 10.432 15.8444C11.2747 15.8444 11.92 15.6204 12.368 15.1724C12.8267 14.735 13.056 14.1964 13.056 13.5564C13.056 12.9164 12.8267 12.3777 12.368 11.9404C11.92 11.5137 11.2747 11.3004 10.432 11.3004C9.58933 11.3004 8.93867 11.5084 8.48 11.9244C8.032 12.351 7.808 12.8844 7.808 13.5244ZM17.84 22.0315L6 22.0315L6 19.7915L17.84 19.7915L17.84 22.0315ZM17.84 26.4846L6 26.4846L6 24.2446L17.84 24.2446L17.84 26.4846ZM5.856 32.6337C5.856 31.7804 6.04267 31.0124 6.416 30.3297C6.8 29.6471 7.33867 29.1084 8.032 28.7137C8.72533 28.3297 9.52533 28.1377 10.432 28.1377C11.3387 28.1377 12.1387 28.3351 12.832 28.7297C13.5253 29.1351 14.0587 29.6844 14.432 30.3777C14.816 31.0711 15.008 31.8444 15.008 32.6977C15.008 33.5511 14.816 34.3244 14.432 35.0177C14.0587 35.7111 13.5253 36.2551 12.832 36.6498C12.1387 37.0551 11.3387 37.2577 10.432 37.2577C9.52533 37.2577 8.72533 37.0497 8.032 36.6337C7.33867 36.2284 6.8 35.6737 6.416 34.9697C6.04267 34.2764 5.856 33.4977 5.856 32.6337ZM7.808 32.6337C7.808 33.0391 7.904 33.4177 8.096 33.7697C8.29867 34.1324 8.59733 34.4204 8.992 34.6337C9.38667 34.8471 9.86667 34.9537 10.432 34.9537C11.2747 34.9537 11.92 34.7297 12.368 34.2817C12.8267 33.8444 13.056 33.3057 13.056 32.6657C13.056 32.0257 12.8267 31.4871 12.368 31.0497C11.92 30.6231 11.2747 30.4097 10.432 30.4097C9.58933 30.4097 8.93867 30.6177 8.48 31.0337C8.032 31.4604 7.808 31.9937 7.808 32.6337ZM14.864 51.1889L6 48.5969L6 46.1809L12.192 44.5649L6 42.9489L6 40.5169L14.864 37.9089L14.864 40.1809L8.112 41.7489L14.864 43.4449L14.864 45.8129L8.128 47.4769L14.864 49.0449L14.864 51.1889ZM14.864 64.5814L6 64.5814L6 62.3254L7.12 62.3254C6.736 62.0374 6.432 61.6587 6.208 61.1894C5.99466 60.7307 5.888 60.2294 5.888 59.6854C5.888 58.992 6.032 58.3787 6.32 57.8454C6.61866 57.312 7.05066 56.8907 7.616 56.5814C8.192 56.2827 8.87466 56.1334 9.664 56.1334L14.864 56.1334L14.864 58.3734L9.984 58.3734C9.28 58.3734 8.736 58.5494 8.352 58.9014C7.97866 59.2534 7.792 59.7334 7.792 60.3414C7.792 60.96 7.97866 61.4454 8.352 61.7974C8.736 62.1494 9.28 62.3254 9.984 62.3254L14.864 62.3254L14.864 64.5814ZM5.856 70.1835C5.856 69.4582 5.984 68.8075 6.24 68.2315C6.50666 67.6555 6.864 67.1968 7.312 66.8555C7.76 66.5248 8.256 66.3435 8.8 66.3115L8.8 68.5675C8.45866 68.6102 8.176 68.7755 7.952 69.0635C7.728 69.3622 7.616 69.7302 7.616 70.1675C7.616 70.5942 7.70133 70.9248 7.872 71.1595C8.04266 71.4048 8.26133 71.5275 8.528 71.5275C8.816 71.5275 9.02933 71.3782 9.168 71.0795C9.31733 70.7915 9.47733 70.3275 9.648 69.6875C9.808 69.0262 9.97333 68.4822 10.144 68.0555C10.3147 67.6395 10.576 67.2768 10.928 66.9675C11.28 66.6688 11.7547 66.5195 12.352 66.5195C12.8427 66.5195 13.2907 66.6582 13.696 66.9355C14.1013 67.2235 14.4213 67.6288 14.656 68.1515C14.8907 68.6848 15.008 69.3088 15.008 70.0235C15.008 71.0795 14.7413 71.9222 14.208 72.5515C13.6853 73.1808 12.976 73.5275 12.08 73.5915L12.08 71.4475C12.432 71.4155 12.7093 71.2662 12.912 70.9995C13.1253 70.7435 13.232 70.3968 13.232 69.9595C13.232 69.5542 13.1573 69.2395 13.008 69.0155C12.8587 68.8022 12.6507 68.6955 12.384 68.6955C12.0853 68.6955 11.856 68.8448 11.696 69.1435C11.5467 69.4422 11.392 69.9062 11.232 70.5355C11.072 71.1755 10.9067 71.7035 10.736 72.1195C10.5653 72.5355 10.2987 72.8928 9.936 73.1915C9.584 73.5008 9.11466 73.6608 8.528 73.6715C8.016 73.6715 7.55733 73.5275 7.152 73.2395C6.74666 72.9622 6.42666 72.5568 6.192 72.0235C5.968 71.5008 5.856 70.8875 5.856 70.1835Z" fill="#354147"/>
<path d="M6.50033 92.6667H13.5003C16.1697 92.6667 18.3337 94.8306 18.3337 97.5V104.5C18.3337 107.169 16.1697 109.333 13.5003 109.333H6.50033C3.83095 109.333 1.66699 107.169 1.66699 104.5V97.5C1.66699 94.8306 3.83095 92.6667 6.50033 92.6667ZM6.33366 94.3333C4.6768 94.3333 3.33366 95.6765 3.33366 97.3333V104.667C3.33366 106.324 4.6768 107.667 6.33366 107.667H13.667C15.3238 107.667 16.667 106.324 16.667 104.667V97.3333C16.667 95.6765 15.3238 94.3333 13.667 94.3333H6.33366ZM14.3753 95.5833C14.9507 95.5833 15.417 96.0497 15.417 96.625C15.417 97.2003 14.9507 97.6667 14.3753 97.6667C13.8 97.6667 13.3337 97.2003 13.3337 96.625C13.3337 96.0497 13.8 95.5833 14.3753 95.5833ZM10.0003 96.8333C12.3015 96.8333 14.167 98.6988 14.167 101C14.167 103.301 12.3015 105.167 10.0003 105.167C7.69913 105.167 5.83366 103.301 5.83366 101C5.83366 98.6988 7.69913 96.8333 10.0003 96.8333ZM10.0003 98.5C8.61958 98.5 7.50033 99.6193 7.50033 101C7.50033 102.381 8.61958 103.5 10.0003 103.5C11.3811 103.5 12.5003 102.381 12.5003 101C12.5003 99.6193 11.3811 98.5 10.0003 98.5Z" fill="#0B1D26"/>
<path d="M18.7162 131.01C18.0749 131.295 17.3855 131.487 16.6622 131.573C17.4004 131.131 17.9676 130.43 18.2346 129.595C17.5435 130.005 16.7782 130.302 15.9635 130.463C15.3112 129.768 14.3818 129.333 13.3531 129.333C11.378 129.333 9.77661 130.935 9.77661 132.91C9.77661 133.19 9.80828 133.463 9.86928 133.725C6.89695 133.575 4.26166 132.152 2.49778 129.988C2.18991 130.516 2.01355 131.13 2.01355 131.786C2.01355 133.027 2.6449 134.121 3.60456 134.763C3.01836 134.744 2.46684 134.583 1.9847 134.315C1.98435 134.33 1.98435 134.345 1.98435 134.36C1.98435 136.093 3.21715 137.539 4.8532 137.867C4.55311 137.949 4.23715 137.993 3.91099 137.993C3.68054 137.993 3.4565 137.97 3.23809 137.928C3.69321 139.349 5.01398 140.383 6.57899 140.412C5.355 141.371 3.81293 141.943 2.13731 141.943C1.84864 141.943 1.56396 141.926 1.28418 141.893C2.8669 142.908 4.7468 143.5 6.76645 143.5C13.3447 143.5 16.942 138.05 16.942 133.324C16.942 133.169 16.9385 133.015 16.9316 132.862C17.6304 132.357 18.2368 131.728 18.7162 131.01Z" fill="#0B1D26"/>
</svg>
