<svg width="146" height="24" viewBox="0 0 146 24" fill="none" xmlns="http://www.w3.org/2000/svg">
<path d="M8.304 6.768L8.304 8.96L3.728 8.96L3.728 11.328L7.152 11.328L7.152 13.456L3.728 13.456L3.728 18L0.991999 18L0.992 6.768L8.304 6.768ZM13.806 18.128C12.9313 18.128 12.142 17.9413 11.438 17.568C10.7447 17.1947 10.1953 16.6613 9.79 15.968C9.39533 15.2747 9.198 14.464 9.198 13.536C9.198 12.6187 9.40067 11.8133 9.806 11.12C10.2113 10.416 10.766 9.87733 11.47 9.504C12.174 9.13067 12.9633 8.944 13.838 8.944C14.7127 8.944 15.502 9.13067 16.206 9.504C16.91 9.87733 17.4647 10.416 17.87 11.12C18.2753 11.8133 18.478 12.6187 18.478 13.536C18.478 14.4533 18.27 15.264 17.854 15.968C17.4487 16.6613 16.8887 17.1947 16.174 17.568C15.47 17.9413 14.6807 18.128 13.806 18.128ZM13.806 15.76C14.3287 15.76 14.7713 15.568 15.134 15.184C15.5073 14.8 15.694 14.2507 15.694 13.536C15.694 12.8213 15.5127 12.272 15.15 11.888C14.798 11.504 14.3607 11.312 13.838 11.312C13.3047 11.312 12.862 11.504 12.51 11.888C12.158 12.2613 11.982 12.8107 11.982 13.536C11.982 14.2507 12.1527 14.8 12.494 15.184C12.846 15.568 13.2833 15.76 13.806 15.76ZM22.6655 6.16L22.6655 18L19.9295 18L19.9295 6.16L22.6655 6.16ZM27.3842 6.16L27.3842 18L24.6482 18L24.6482 6.16L27.3842 6.16ZM33.431 18.128C32.5563 18.128 31.767 17.9413 31.063 17.568C30.3697 17.1947 29.8203 16.6613 29.415 15.968C29.0203 15.2747 28.823 14.464 28.823 13.536C28.823 12.6187 29.0257 11.8133 29.431 11.12C29.8363 10.416 30.391 9.87733 31.095 9.504C31.799 9.13067 32.5883 8.944 33.463 8.944C34.3377 8.944 35.127 9.13067 35.831 9.504C36.535 9.87733 37.0897 10.416 37.495 11.12C37.9003 11.8133 38.103 12.6187 38.103 13.536C38.103 14.4533 37.895 15.264 37.479 15.968C37.0737 16.6613 36.5137 17.1947 35.799 17.568C35.095 17.9413 34.3057 18.128 33.431 18.128ZM33.431 15.76C33.9537 15.76 34.3963 15.568 34.759 15.184C35.1323 14.8 35.319 14.2507 35.319 13.536C35.319 12.8213 35.1377 12.272 34.775 11.888C34.423 11.504 33.9857 11.312 33.463 11.312C32.9297 11.312 32.487 11.504 32.135 11.888C31.783 12.2613 31.607 12.8107 31.607 13.536C31.607 14.2507 31.7777 14.8 32.119 15.184C32.471 15.568 32.9083 15.76 33.431 15.76ZM52.3705 9.072L49.9545 18L46.9305 18L45.5225 12.208L44.0665 18L41.0585 18L38.6265 9.072L41.3625 9.072L42.6265 15.456L44.1305 9.072L47.0265 9.072L48.5465 15.424L49.7945 9.072L52.3705 9.072ZM65.6205 9.072L65.6205 18L62.8845 18L62.8845 16.784C62.6072 17.1787 62.2285 17.4987 61.7485 17.744C61.2792 17.9787 60.7565 18.096 60.1805 18.096C59.4978 18.096 58.8952 17.9467 58.3725 17.648C57.8498 17.3387 57.4445 16.896 57.1565 16.32C56.8685 15.744 56.7245 15.0667 56.7245 14.288L56.7245 9.072L59.4445 9.072L59.4445 13.92C59.4445 14.5173 59.5992 14.9813 59.9085 15.312C60.2178 15.6427 60.6338 15.808 61.1565 15.808C61.6898 15.808 62.1112 15.6427 62.4205 15.312C62.7298 14.9813 62.8845 14.5173 62.8845 13.92L62.8845 9.072L65.6205 9.072ZM71.2177 18.128C70.4391 18.128 69.7457 17.9947 69.1377 17.728C68.5297 17.4613 68.0497 17.0987 67.6977 16.64C67.3457 16.1707 67.1484 15.648 67.1057 15.072L69.8097 15.072C69.8417 15.3813 69.9857 15.632 70.2417 15.824C70.4977 16.016 70.8124 16.112 71.1857 16.112C71.5271 16.112 71.7884 16.048 71.9697 15.92C72.1617 15.7813 72.2577 15.6053 72.2577 15.392C72.2577 15.136 72.1244 14.9493 71.8577 14.832C71.5911 14.704 71.1591 14.5653 70.5617 14.416C69.9217 14.2667 69.3884 14.112 68.9617 13.952C68.5351 13.7813 68.1671 13.52 67.8577 13.168C67.5484 12.8053 67.3937 12.32 67.3937 11.712C67.3937 11.2 67.5324 10.736 67.8097 10.32C68.0977 9.89334 68.5137 9.55734 69.0577 9.312C69.6124 9.06667 70.2684 8.944 71.0257 8.944C72.1457 8.944 73.0258 9.22134 73.6658 9.776C74.3164 10.3307 74.6897 11.0667 74.7857 11.984L72.2577 11.984C72.2151 11.6747 72.0764 11.4293 71.8417 11.248C71.6177 11.0667 71.3191 10.976 70.9457 10.976C70.6257 10.976 70.3804 11.04 70.2097 11.168C70.0391 11.2853 69.9537 11.4507 69.9537 11.664C69.9537 11.92 70.0871 12.112 70.3537 12.24C70.6311 12.368 71.0577 12.496 71.6337 12.624C72.2951 12.7947 72.8337 12.9653 73.2497 13.136C73.6657 13.296 74.0284 13.5627 74.3377 13.936C74.6577 14.2987 74.8231 14.7893 74.8338 15.408C74.8338 15.9307 74.6844 16.4 74.3857 16.816C74.0977 17.2213 73.6764 17.5413 73.1217 17.776C72.5777 18.0107 71.9431 18.128 71.2177 18.128Z" fill="white"/>
<path d="M92.6665 17.5V10.5C92.6665 7.83068 94.8305 5.66668 97.4998 5.66668H104.5C107.169 5.66668 109.333 7.83068 109.333 10.5V17.5C109.333 20.1694 107.169 22.3333 104.5 22.3333H97.4998C94.8305 22.3333 92.6665 20.1694 92.6665 17.5ZM94.3332 17.6667C94.3332 19.3235 95.6763 20.6667 97.3332 20.6667H104.666C106.323 20.6667 107.666 19.3235 107.666 17.6667V10.3333C107.666 8.67651 106.323 7.33334 104.666 7.33334H97.3332C95.6763 7.33334 94.3332 8.67651 94.3332 10.3333V17.6667ZM95.5832 9.62501C95.5832 9.04968 96.0495 8.58334 96.6248 8.58334C97.2001 8.58334 97.6665 9.04968 97.6665 9.62501C97.6665 10.2003 97.2001 10.6667 96.6248 10.6667C96.0495 10.6667 95.5832 10.2003 95.5832 9.62501ZM96.8332 14C96.8332 11.6988 98.6986 9.83334 101 9.83334C103.301 9.83334 105.166 11.6988 105.166 14C105.166 16.3012 103.301 18.1667 101 18.1667C98.6986 18.1667 96.8332 16.3012 96.8332 14ZM98.4998 14C98.4998 15.3808 99.6192 16.5 101 16.5C102.381 16.5 103.5 15.3808 103.5 14C103.5 12.6193 102.381 11.5 101 11.5C99.6192 11.5 98.4998 12.6193 98.4998 14Z" fill="white"/>
<path d="M144.716 9.01033C144.075 9.29479 143.386 9.48703 142.662 9.57347C143.4 9.13085 143.968 8.42999 144.235 7.59483C143.544 8.00471 142.778 8.30233 141.964 8.46268C141.311 7.76761 140.382 7.33334 139.353 7.33334C137.378 7.33334 135.777 8.93457 135.777 10.9096C135.777 11.1899 135.808 11.4629 135.869 11.7247C132.897 11.5755 130.262 10.1517 128.498 7.98794C128.19 8.51614 128.014 9.13048 128.014 9.78592C128.014 11.0267 128.645 12.1214 129.605 12.7628C129.018 12.7441 128.467 12.5833 127.985 12.3154C127.984 12.3303 127.984 12.3453 127.984 12.3603C127.984 14.0932 129.217 15.5386 130.853 15.8672C130.553 15.9489 130.237 15.9927 129.911 15.9927C129.681 15.9927 129.456 15.9702 129.238 15.9285C129.693 17.3493 131.014 18.3833 132.579 18.4121C131.355 19.3714 129.813 19.9432 128.137 19.9432C127.849 19.9432 127.564 19.9262 127.284 19.8931C128.867 20.9078 130.747 21.5 132.766 21.5C139.345 21.5 142.942 16.0504 142.942 11.3243C142.942 11.1693 142.939 11.0151 142.932 10.8616C143.63 10.3574 144.237 9.72753 144.716 9.01033Z" fill="white"/>
</svg>
