<svg width="464" height="27" viewBox="0 0 464 27" fill="none" xmlns="http://www.w3.org/2000/svg">
<path d="M114.882 7.31L111.768 20H107.43L105.684 12.224L103.902 20H99.564L96.486 7.31H100.302L101.778 15.986L103.776 7.31H107.646L109.59 15.914L111.066 7.31H114.882ZM133.737 7.31V20H130.209V14.906H125.907V20H122.379V7.31H125.907V12.08H130.209V7.31H133.737ZM145.284 10.136V12.206H149.334V14.888H145.284V17.174H149.874V20H141.756V7.31H149.874V10.136H145.284ZM164.043 20L161.523 15.32H161.145V20H157.617V7.31H163.179C164.199 7.31 165.063 7.49 165.771 7.85C166.479 8.198 167.013 8.684 167.373 9.308C167.733 9.92 167.913 10.61 167.913 11.378C167.913 12.242 167.673 13.004 167.193 13.664C166.725 14.312 166.035 14.774 165.123 15.05L167.985 20H164.043ZM161.145 12.908H162.891C163.371 12.908 163.731 12.794 163.971 12.566C164.211 12.338 164.331 12.008 164.331 11.576C164.331 11.168 164.205 10.85 163.953 10.622C163.713 10.382 163.359 10.262 162.891 10.262H161.145V12.908ZM179.046 10.136V12.206H183.096V14.888H179.046V17.174H183.636V20H175.518V7.31H183.636V10.136H179.046ZM212.362 7.31L207.898 15.968V20H204.352V15.968L199.888 7.31H203.92L206.152 12.206L208.384 7.31H212.362ZM225.53 20.126C224.342 20.126 223.25 19.85 222.254 19.298C221.258 18.734 220.466 17.96 219.878 16.976C219.302 15.98 219.014 14.858 219.014 13.61C219.014 12.362 219.302 11.246 219.878 10.262C220.466 9.266 221.258 8.492 222.254 7.94C223.25 7.388 224.342 7.112 225.53 7.112C226.73 7.112 227.822 7.388 228.806 7.94C229.802 8.492 230.588 9.266 231.164 10.262C231.74 11.246 232.028 12.362 232.028 13.61C232.028 14.858 231.74 15.98 231.164 16.976C230.588 17.96 229.802 18.734 228.806 19.298C227.81 19.85 226.718 20.126 225.53 20.126ZM225.53 16.85C226.43 16.85 227.138 16.556 227.654 15.968C228.182 15.38 228.446 14.594 228.446 13.61C228.446 12.602 228.182 11.81 227.654 11.234C227.138 10.646 226.43 10.352 225.53 10.352C224.618 10.352 223.904 10.646 223.388 11.234C222.872 11.81 222.614 12.602 222.614 13.61C222.614 14.606 222.872 15.398 223.388 15.986C223.904 16.562 224.618 16.85 225.53 16.85ZM243.069 7.31V14.672C243.069 15.356 243.225 15.884 243.537 16.256C243.861 16.628 244.347 16.814 244.995 16.814C245.643 16.814 246.129 16.628 246.453 16.256C246.789 15.872 246.957 15.344 246.957 14.672V7.31H250.485V14.672C250.485 15.836 250.239 16.832 249.747 17.66C249.255 18.476 248.583 19.094 247.731 19.514C246.891 19.922 245.955 20.126 244.923 20.126C243.891 20.126 242.967 19.922 242.151 19.514C241.347 19.094 240.711 18.476 240.243 17.66C239.787 16.844 239.559 15.848 239.559 14.672V7.31H243.069ZM275.973 11.486C275.769 11.15 275.487 10.892 275.127 10.712C274.779 10.532 274.365 10.442 273.885 10.442C272.997 10.442 272.295 10.73 271.779 11.306C271.275 11.882 271.023 12.656 271.023 13.628C271.023 14.72 271.293 15.554 271.833 16.13C272.385 16.694 273.183 16.976 274.227 16.976C275.463 16.976 276.345 16.418 276.873 15.302H273.327V12.764H279.915V16.184C279.639 16.856 279.231 17.486 278.691 18.074C278.163 18.662 277.491 19.148 276.675 19.532C275.859 19.904 274.929 20.09 273.885 20.09C272.613 20.09 271.485 19.82 270.501 19.28C269.529 18.728 268.773 17.966 268.233 16.994C267.705 16.01 267.441 14.888 267.441 13.628C267.441 12.38 267.705 11.27 268.233 10.298C268.773 9.314 269.529 8.552 270.501 8.012C271.473 7.46 272.595 7.184 273.867 7.184C275.463 7.184 276.783 7.568 277.827 8.336C278.871 9.104 279.519 10.154 279.771 11.486H275.973ZM293.58 20.126C292.392 20.126 291.3 19.85 290.304 19.298C289.308 18.734 288.516 17.96 287.928 16.976C287.352 15.98 287.064 14.858 287.064 13.61C287.064 12.362 287.352 11.246 287.928 10.262C288.516 9.266 289.308 8.492 290.304 7.94C291.3 7.388 292.392 7.112 293.58 7.112C294.78 7.112 295.872 7.388 296.856 7.94C297.852 8.492 298.638 9.266 299.214 10.262C299.79 11.246 300.078 12.362 300.078 13.61C300.078 14.858 299.79 15.98 299.214 16.976C298.638 17.96 297.852 18.734 296.856 19.298C295.86 19.85 294.768 20.126 293.58 20.126ZM293.58 16.85C294.48 16.85 295.188 16.556 295.704 15.968C296.232 15.38 296.496 14.594 296.496 13.61C296.496 12.602 296.232 11.81 295.704 11.234C295.188 10.646 294.48 10.352 293.58 10.352C292.668 10.352 291.954 10.646 291.438 11.234C290.922 11.81 290.664 12.602 290.664 13.61C290.664 14.606 290.922 15.398 291.438 15.986C291.954 16.562 292.668 16.85 293.58 16.85ZM320.638 7.31V20H317.11V7.31H320.638ZM333.435 20.126C331.959 20.126 330.747 19.778 329.799 19.082C328.851 18.374 328.341 17.366 328.269 16.058H332.031C332.067 16.502 332.199 16.826 332.427 17.03C332.655 17.234 332.949 17.336 333.309 17.336C333.633 17.336 333.897 17.258 334.101 17.102C334.317 16.934 334.425 16.706 334.425 16.418C334.425 16.046 334.251 15.758 333.903 15.554C333.555 15.35 332.991 15.122 332.211 14.87C331.383 14.594 330.711 14.33 330.195 14.078C329.691 13.814 329.247 13.436 328.863 12.944C328.491 12.44 328.305 11.786 328.305 10.982C328.305 10.166 328.509 9.47 328.917 8.894C329.325 8.306 329.889 7.862 330.609 7.562C331.329 7.262 332.145 7.112 333.057 7.112C334.533 7.112 335.709 7.46 336.585 8.156C337.473 8.84 337.947 9.806 338.007 11.054H334.173C334.161 10.67 334.041 10.382 333.813 10.19C333.597 9.998 333.315 9.902 332.967 9.902C332.703 9.902 332.487 9.98 332.319 10.136C332.151 10.292 332.067 10.514 332.067 10.802C332.067 11.042 332.157 11.252 332.337 11.432C332.529 11.6 332.763 11.75 333.039 11.882C333.315 12.002 333.723 12.158 334.263 12.35C335.067 12.626 335.727 12.902 336.243 13.178C336.771 13.442 337.221 13.82 337.593 14.312C337.977 14.792 338.169 15.404 338.169 16.148C338.169 16.904 337.977 17.582 337.593 18.182C337.221 18.782 336.675 19.256 335.955 19.604C335.247 19.952 334.407 20.126 333.435 20.126ZM364.812 7.31V10.118H361.428V20H357.9V10.118H354.552V7.31H364.812ZM383.475 7.31V20H379.947V14.906H375.645V20H372.117V7.31H375.645V12.08H379.947V7.31H383.475ZM395.022 10.136V12.206H399.072V14.888H395.022V17.174H399.612V20H391.494V7.31H399.612V10.136H395.022ZM424.307 20L420.329 14.438V20H416.801V7.31H420.329V12.782L424.271 7.31H428.339L423.677 13.466L428.573 20H424.307ZM439.39 10.136V12.206H443.44V14.888H439.39V17.174H443.98V20H435.862V7.31H443.98V10.136H439.39ZM463.261 7.31L458.797 15.968V20H455.251V15.968L450.787 7.31H454.819L457.051 12.206L459.283 7.31H463.261Z" fill="#FBD784"/>
<rect y="10" width="72" height="2" fill="#FBD784"/>
</svg>
