<svg width="367" height="27" viewBox="0 0 367 27" fill="none" xmlns="http://www.w3.org/2000/svg">
<path d="M108.366 7.31V20H104.838V14.906H100.536V20H97.008V7.31H100.536V12.08H104.838V7.31H108.366ZM119.913 7.31V20H116.385V7.31H119.913ZM135.428 20L131.45 14.438V20H127.922V7.31H131.45V12.782L135.392 7.31H139.46L134.798 13.466L139.694 20H135.428ZM150.511 7.31V20H146.983V7.31H150.511ZM170.274 20H166.746L162.048 12.908V20H158.52V7.31H162.048L166.746 14.492V7.31H170.274V20ZM186.383 11.486C186.179 11.15 185.897 10.892 185.537 10.712C185.189 10.532 184.775 10.442 184.295 10.442C183.407 10.442 182.705 10.73 182.189 11.306C181.685 11.882 181.433 12.656 181.433 13.628C181.433 14.72 181.703 15.554 182.243 16.13C182.795 16.694 183.593 16.976 184.637 16.976C185.873 16.976 186.755 16.418 187.283 15.302H183.737V12.764H190.325V16.184C190.049 16.856 189.641 17.486 189.101 18.074C188.573 18.662 187.901 19.148 187.085 19.532C186.269 19.904 185.339 20.09 184.295 20.09C183.023 20.09 181.895 19.82 180.911 19.28C179.939 18.728 179.183 17.966 178.643 16.994C178.115 16.01 177.851 14.888 177.851 13.628C177.851 12.38 178.115 11.27 178.643 10.298C179.183 9.314 179.939 8.552 180.911 8.012C181.883 7.46 183.005 7.184 184.277 7.184C185.873 7.184 187.193 7.568 188.237 8.336C189.281 9.104 189.929 10.154 190.181 11.486H186.383ZM210.88 10.136V12.206H214.93V14.888H210.88V17.174H215.47V20H207.352V7.31H215.47V10.136H210.88ZM228.001 20.126C226.525 20.126 225.313 19.778 224.365 19.082C223.417 18.374 222.907 17.366 222.835 16.058H226.597C226.633 16.502 226.765 16.826 226.993 17.03C227.221 17.234 227.515 17.336 227.875 17.336C228.199 17.336 228.463 17.258 228.667 17.102C228.883 16.934 228.991 16.706 228.991 16.418C228.991 16.046 228.817 15.758 228.469 15.554C228.121 15.35 227.557 15.122 226.777 14.87C225.949 14.594 225.277 14.33 224.761 14.078C224.257 13.814 223.813 13.436 223.429 12.944C223.057 12.44 222.871 11.786 222.871 10.982C222.871 10.166 223.075 9.47 223.483 8.894C223.891 8.306 224.455 7.862 225.175 7.562C225.895 7.262 226.711 7.112 227.623 7.112C229.099 7.112 230.275 7.46 231.151 8.156C232.039 8.84 232.513 9.806 232.573 11.054H228.739C228.727 10.67 228.607 10.382 228.379 10.19C228.163 9.998 227.881 9.902 227.533 9.902C227.269 9.902 227.053 9.98 226.885 10.136C226.717 10.292 226.633 10.514 226.633 10.802C226.633 11.042 226.723 11.252 226.903 11.432C227.095 11.6 227.329 11.75 227.605 11.882C227.881 12.002 228.289 12.158 228.829 12.35C229.633 12.626 230.293 12.902 230.809 13.178C231.337 13.442 231.787 13.82 232.159 14.312C232.543 14.792 232.735 15.404 232.735 16.148C232.735 16.904 232.543 17.582 232.159 18.182C231.787 18.782 231.241 19.256 230.521 19.604C229.813 19.952 228.973 20.126 228.001 20.126ZM245.163 20.126C243.687 20.126 242.475 19.778 241.527 19.082C240.579 18.374 240.069 17.366 239.997 16.058H243.759C243.795 16.502 243.927 16.826 244.155 17.03C244.383 17.234 244.677 17.336 245.037 17.336C245.361 17.336 245.625 17.258 245.829 17.102C246.045 16.934 246.153 16.706 246.153 16.418C246.153 16.046 245.979 15.758 245.631 15.554C245.283 15.35 244.719 15.122 243.939 14.87C243.111 14.594 242.439 14.33 241.923 14.078C241.419 13.814 240.975 13.436 240.591 12.944C240.219 12.44 240.033 11.786 240.033 10.982C240.033 10.166 240.237 9.47 240.645 8.894C241.053 8.306 241.617 7.862 242.337 7.562C243.057 7.262 243.873 7.112 244.785 7.112C246.261 7.112 247.437 7.46 248.313 8.156C249.201 8.84 249.675 9.806 249.735 11.054H245.901C245.889 10.67 245.769 10.382 245.541 10.19C245.325 9.998 245.043 9.902 244.695 9.902C244.431 9.902 244.215 9.98 244.047 10.136C243.879 10.292 243.795 10.514 243.795 10.802C243.795 11.042 243.885 11.252 244.065 11.432C244.257 11.6 244.491 11.75 244.767 11.882C245.043 12.002 245.451 12.158 245.991 12.35C246.795 12.626 247.455 12.902 247.971 13.178C248.499 13.442 248.949 13.82 249.321 14.312C249.705 14.792 249.897 15.404 249.897 16.148C249.897 16.904 249.705 17.582 249.321 18.182C248.949 18.782 248.403 19.256 247.683 19.604C246.975 19.952 246.135 20.126 245.163 20.126ZM261.065 10.136V12.206H265.115V14.888H261.065V17.174H265.655V20H257.537V7.31H265.655V10.136H261.065ZM285.153 20H281.625L276.927 12.908V20H273.399V7.31H276.927L281.625 14.492V7.31H285.153V20ZM302.72 7.31V10.118H299.336V20H295.808V10.118H292.46V7.31H302.72ZM313.554 7.31V20H310.026V7.31H313.554ZM329.591 17.93H325.091L324.407 20H320.699L325.325 7.31H329.393L334.001 20H330.275L329.591 17.93ZM328.709 15.23L327.341 11.126L325.991 15.23H328.709ZM344.679 17.3H348.621V20H341.151V7.31H344.679V17.3ZM360.78 20.126C359.304 20.126 358.092 19.778 357.144 19.082C356.196 18.374 355.686 17.366 355.614 16.058H359.376C359.412 16.502 359.544 16.826 359.772 17.03C360 17.234 360.294 17.336 360.654 17.336C360.978 17.336 361.242 17.258 361.446 17.102C361.662 16.934 361.77 16.706 361.77 16.418C361.77 16.046 361.596 15.758 361.248 15.554C360.9 15.35 360.336 15.122 359.556 14.87C358.728 14.594 358.056 14.33 357.54 14.078C357.036 13.814 356.592 13.436 356.208 12.944C355.836 12.44 355.65 11.786 355.65 10.982C355.65 10.166 355.854 9.47 356.262 8.894C356.67 8.306 357.234 7.862 357.954 7.562C358.674 7.262 359.49 7.112 360.402 7.112C361.878 7.112 363.054 7.46 363.93 8.156C364.818 8.84 365.292 9.806 365.352 11.054H361.518C361.506 10.67 361.386 10.382 361.158 10.19C360.942 9.998 360.66 9.902 360.312 9.902C360.048 9.902 359.832 9.98 359.664 10.136C359.496 10.292 359.412 10.514 359.412 10.802C359.412 11.042 359.502 11.252 359.682 11.432C359.874 11.6 360.108 11.75 360.384 11.882C360.66 12.002 361.068 12.158 361.608 12.35C362.412 12.626 363.072 12.902 363.588 13.178C364.116 13.442 364.566 13.82 364.938 14.312C365.322 14.792 365.514 15.404 365.514 16.148C365.514 16.904 365.322 17.582 364.938 18.182C364.566 18.782 364.02 19.256 363.3 19.604C362.592 19.952 361.752 20.126 360.78 20.126Z" fill="#FBD784"/>
<rect y="10" width="72" height="2" fill="#FBD784"/>
</svg>
