<svg width="276" height="27" viewBox="0 0 276 27" fill="none" xmlns="http://www.w3.org/2000/svg">
<path d="M105.108 11.486C104.904 11.15 104.622 10.892 104.262 10.712C103.914 10.532 103.5 10.442 103.02 10.442C102.132 10.442 101.43 10.73 100.914 11.306C100.41 11.882 100.158 12.656 100.158 13.628C100.158 14.72 100.428 15.554 100.968 16.13C101.52 16.694 102.318 16.976 103.362 16.976C104.598 16.976 105.48 16.418 106.008 15.302H102.462V12.764H109.05V16.184C108.774 16.856 108.366 17.486 107.826 18.074C107.298 18.662 106.626 19.148 105.81 19.532C104.994 19.904 104.064 20.09 103.02 20.09C101.748 20.09 100.62 19.82 99.636 19.28C98.664 18.728 97.908 17.966 97.368 16.994C96.84 16.01 96.576 14.888 96.576 13.628C96.576 12.38 96.84 11.27 97.368 10.298C97.908 9.314 98.664 8.552 99.636 8.012C100.608 7.46 101.73 7.184 103.002 7.184C104.598 7.184 105.918 7.568 106.962 8.336C108.006 9.104 108.654 10.154 108.906 11.486H105.108ZM120.159 10.136V12.206H124.209V14.888H120.159V17.174H124.749V20H116.631V7.31H124.749V10.136H120.159ZM142.05 7.31V10.118H138.666V20H135.138V10.118H131.79V7.31H142.05ZM163.589 20.126C162.113 20.126 160.901 19.778 159.953 19.082C159.005 18.374 158.495 17.366 158.423 16.058H162.185C162.221 16.502 162.353 16.826 162.581 17.03C162.809 17.234 163.103 17.336 163.463 17.336C163.787 17.336 164.051 17.258 164.255 17.102C164.471 16.934 164.579 16.706 164.579 16.418C164.579 16.046 164.405 15.758 164.057 15.554C163.709 15.35 163.145 15.122 162.365 14.87C161.537 14.594 160.865 14.33 160.349 14.078C159.845 13.814 159.401 13.436 159.017 12.944C158.645 12.44 158.459 11.786 158.459 10.982C158.459 10.166 158.663 9.47 159.071 8.894C159.479 8.306 160.043 7.862 160.763 7.562C161.483 7.262 162.299 7.112 163.211 7.112C164.687 7.112 165.863 7.46 166.739 8.156C167.627 8.84 168.101 9.806 168.161 11.054H164.327C164.315 10.67 164.195 10.382 163.967 10.19C163.751 9.998 163.469 9.902 163.121 9.902C162.857 9.902 162.641 9.98 162.473 10.136C162.305 10.292 162.221 10.514 162.221 10.802C162.221 11.042 162.311 11.252 162.491 11.432C162.683 11.6 162.917 11.75 163.193 11.882C163.469 12.002 163.877 12.158 164.417 12.35C165.221 12.626 165.881 12.902 166.397 13.178C166.925 13.442 167.375 13.82 167.747 14.312C168.131 14.792 168.323 15.404 168.323 16.148C168.323 16.904 168.131 17.582 167.747 18.182C167.375 18.782 166.829 19.256 166.109 19.604C165.401 19.952 164.561 20.126 163.589 20.126ZM185.521 7.31V10.118H182.137V20H178.609V10.118H175.261V7.31H185.521ZM200.854 17.93H196.354L195.67 20H191.962L196.588 7.31H200.656L205.264 20H201.538L200.854 17.93ZM199.972 15.23L198.604 11.126L197.254 15.23H199.972ZM218.84 20L216.32 15.32H215.942V20H212.414V7.31H217.976C218.996 7.31 219.86 7.49 220.568 7.85C221.276 8.198 221.81 8.684 222.17 9.308C222.53 9.92 222.71 10.61 222.71 11.378C222.71 12.242 222.47 13.004 221.99 13.664C221.522 14.312 220.832 14.774 219.92 15.05L222.782 20H218.84ZM215.942 12.908H217.688C218.168 12.908 218.528 12.794 218.768 12.566C219.008 12.338 219.128 12.008 219.128 11.576C219.128 11.168 219.002 10.85 218.75 10.622C218.51 10.382 218.156 10.262 217.688 10.262H215.942V12.908ZM239.873 7.31V10.118H236.489V20H232.961V10.118H229.613V7.31H239.873ZM250.706 10.136V12.206H254.756V14.888H250.706V17.174H255.296V20H247.178V7.31H255.296V10.136H250.706ZM268.061 7.31C269.393 7.31 270.557 7.58 271.553 8.12C272.561 8.648 273.335 9.392 273.875 10.352C274.415 11.312 274.685 12.41 274.685 13.646C274.685 14.87 274.409 15.962 273.857 16.922C273.317 17.882 272.543 18.638 271.535 19.19C270.539 19.73 269.381 20 268.061 20H263.039V7.31H268.061ZM267.791 16.886C268.823 16.886 269.633 16.604 270.221 16.04C270.809 15.476 271.103 14.678 271.103 13.646C271.103 12.602 270.809 11.798 270.221 11.234C269.633 10.658 268.823 10.37 267.791 10.37H266.567V16.886H267.791Z" fill="#FBD784"/>
<rect y="10" width="72" height="2" fill="#FBD784"/>
</svg>
